<svg xmlns="http://www.w3.org/2000/svg" version="1.1" xmlns:xlink="http://www.w3.org/1999/xlink" xmlns:svgjs="http://svgjs.dev/svgjs" width="300" height="300" viewBox="0 0 1000 1125"><g transform="matrix(1,0,0,1,1.7053025658242404e-13,0)"><svg viewBox="0 0 320 360" data-background-color="#ffffff" preserveAspectRatio="xMidYMid meet" height="1125" width="1000" xmlns="http://www.w3.org/2000/svg" xmlns:xlink="http://www.w3.org/1999/xlink"><g id="tight-bounds" transform="matrix(1,0,0,1,0,0)"><svg viewBox="0 0 320 360" height="360" width="320"><g><svg></svg></g><g><svg viewBox="0 0 320 360" height="360" width="320"><g><path xmlns="http://www.w3.org/2000/svg" d="M20.961 227.22l3.726 4.658-1.863-6.056c-0.466-2.795-3.726 0.466-1.863 1.398M25.153 224.425c1.397 2.329 2.795 4.658 2.795 6.987 0 3.261 2.795 4.658 5.123 5.589-3.261-3.726-5.124-13.974-7.918-12.576M204.017 26.929c7.918 0 15.371-0.932 23.756 0.931 20.495 5.124 37.729 15.371 49.374 29.811l32.606 52.169c1.397 13.042 4.192 27.482 3.726 43.319 3.261 0 2.795-4.658 6.521-5.59-3.726 9.316-5.59 20.961-6.521 34.469-2.329-7.453 0-18.632 0.466-24.687-3.261 5.124-5.124 1.397-5.124-0.932 0.466-3.726-1.397-3.261-2.795-4.658-5.124-4.658-8.384-9.782-12.11-17.7 2.329-6.055 2.795-14.905-4.658-19.563-2.329-1.397-5.124-3.726-6.521-7.453-1.863-5.124-5.124-11.179-4.193-19.097 0.466-2.329-6.987 5.124-11.179 1.863-18.166-12.576-36.332-27.016-58.224-39.127-11.645 0-20.029-4.192-24.221-9.316-3.726-4.658-0.932-10.713 4.658-11.179 3.261 0 6.987-0.932 9.782 0.932 0.466-1.863 2.329-4.192 4.657-4.192M157.904 16.215l0.932 0.466c4.658 0.932 6.987 7.453 12.11 5.124 0 3.261 0.466 6.521-0.466 8.85-1.397 3.726-5.59 3.726-8.85 3.726-31.208-1.863-49.374 11.179-68.471 22.358-5.124 3.261-10.713 5.59-14.906 9.782-20.029 18.632-41.921 35.866-47.045 70.335l-4.192 38.195c-0.466 4.192-5.124 8.384-4.192 13.508l3.26 22.824c-3.261-3.261-5.124 0.932-4.192 2.795 0.466 1.397 2.329 6.055 5.124 1.863 3.726 6.987 7.453 20.495 12.576 26.55 15.837 18.632 36.332 35.4 53.101 52.169 4.192-0.932 7.453-0.932 8.384-3.727 1.397 2.795-1.397 5.59-3.726 6.056 7.453 4.658 15.837 8.85 27.016 9.781 14.44 0.932 27.948 3.261 40.524 6.522 6.521-1.863 13.042-2.795 20.029-3.261 2.329 0 3.726-3.726 6.521-4.658l0.466-4.658c2.795 4.192 2.329-1.397 0.466-4.192 3.261 2.795 4.192 5.124 5.589 6.987 0-1.397 3.726-6.521 3.727-0.466l0.931-6.055c1.397-0.932 1.863 5.124 3.261 0.931 1.397-4.192 4.192-0.932 6.987-2.329-0.932 1.863-0.466 5.59 2.794 3.261l3.727-3.261c2.329 5.59 6.055 3.261 7.918 2.329 20.495-13.042 40.99-28.413 60.553-43.784l-0.466 6.055 2.329-7.453c2.329 2.329 4.192 0.466 5.124-0.931 2.795-4.658 6.521-9.316 12.577-13.508-7.453 20.029-16.303 35.866-27.482 48.908l-4.658 5.59c0 3.261-0.932 7.453-4.658 7.918-1.863 0.466-5.59-0.932-8.384 1.863-1.397 1.863 3.261 5.59-0.466 2.795-3.261-2.329-6.521 0-10.248 0.932-2.795 0.932 1.863 3.726 2.795 5.589 0.932 1.863 1.863 3.726 1.398 6.056l-5.124-5.59c-6.055 3.261-9.782 9.316-14.906 13.974-2.329 1.863-1.397 5.124-1.397 7.918-3.261 0-6.987-0.932-8.85 0.932-1.397 1.863-0.932 4.658-0.932 7.453-4.658-0.466-5.124-7.453-9.315-6.056-4.192 0.932-8.85 1.397-12.577 3.727 2.795 5.59-4.658 2.329-3.726 3.26-6.987-4.192-13.042-7.453-20.495-4.658-15.837-5.124-35.4-2.795-49.84-0.931 0-2.329 0.466-4.658-0.466-5.124-0.932 2.329-3.726 1.397-3.26 1.397-8.85-6.055-17.7-9.782-27.016-14.905-8.384 0.932-16.303-3.261-18.632-5.59-6.521-6.055-13.974-2.795-20.029-4.192-13.042-3.261-17.7-16.769-19.098-26.084-0.932-4.658-4.658-6.521-6.055-6.056-6.055-19.563-15.371-37.263-22.824-55.429-1.863-4.658-1.397-9.316-1.397-14.44 2.329 0.932 4.658 0.466 4.192-2.794-2.329-15.371-7.918-27.016-13.974-38.195 3.261-15.837 3.726-34.469 11.179-48.443 6.521-12.576 18.632-19.098 27.016-29.811 2.795-3.726 2.795-8.85 5.59-12.11 9.316-9.316 18.632-19.098 28.879-27.482 4.658-3.726 10.247 0 17.234-1.397 2.329-8.384 11.645-15.837 20.495-13.508 3.726 0.932 11.179-8.85 13.508-9.782 3.726-1.397 1.863 3.726 1.863 6.987 8.85-6.987 20.961-10.713 32.14-14.906" fill="#8b3c7f" fill-rule="nonzero" stroke="none" stroke-width="1" stroke-linecap="butt" stroke-linejoin="miter" stroke-miterlimit="10" stroke-dasharray="" stroke-dashoffset="0" font-family="none" font-weight="none" font-size="none" text-anchor="none" style="mix-blend-mode: normal" data-fill-palette-color="tertiary"></path></g><g transform="matrix(1,0,0,1,64,151.18174409127954)"><svg viewBox="0 0 192 57.63651181744091" height="57.63651181744091" width="192"><g><svg viewBox="0 0 192 57.63651181744091" height="57.63651181744091" width="192"><g><svg viewBox="0 0 192 57.63651181744091" height="57.63651181744091" width="192"><g><svg viewBox="0 0 192 57.63651181744091" height="57.63651181744091" width="192"><g id="textblocktransform"><svg viewBox="0 0 192 57.63651181744091" height="57.63651181744091" width="192" id="textblock"><g><svg viewBox="0 0 192 57.63651181744091" height="57.63651181744091" width="192"><g transform="matrix(1,0,0,1,0,0)"><svg width="192" viewBox="7.050000190734863 -36.900001525878906 184.02999877929688 55.25" height="57.63651181744091" data-palette-color="#8b3c7f"><path d="M32.75-15.9L32.75-15.9Q34.05-15.9 34.8-15 35.55-14.1 35.55-12.5L35.55-12.5Q35.55-12.1 35.5-11.68 35.45-11.25 35.35-10.95L35.35-10.95Q34.3-11.2 33.05-11.25L33.05-11.25Q32.75-9.05 31.45-6.63 30.15-4.2 28.3-2.08 26.45 0.05 24.25 1.65 22.05 3.25 19.9 3.8L19.9 3.8Q13.2 3.65 10.13 0.33 7.05-3 7.05-10.05L7.05-10.05Q7.05-15.2 8.95-20.03 10.85-24.85 14-28.6 17.15-32.35 21.23-34.63 25.3-36.9 29.7-36.9L29.7-36.9Q33.15-36.9 35.08-35.45 37-34 37-31.35L37-31.35Q37-29.6 36.18-28.1 35.35-26.6 33.45-24.85L33.45-24.85Q32.3-25.2 31.45-26.08 30.6-26.95 30.4-28.1L30.4-28.1Q32.1-29.35 32.8-30.4 33.5-31.45 33.5-32.9L33.5-32.9Q33.5-35.2 30.75-35.2L30.75-35.2Q28.5-35.2 25.93-33.52 23.35-31.85 20.75-28.7L20.75-28.7Q17.05-24.25 15.35-19.53 13.65-14.8 13.65-8.9L13.65-8.9Q13.65-6.7 14.1-4.9 14.55-3.1 15.3-1.75 16.05-0.4 17.07 0.4 18.1 1.2 19.3 1.3L19.3 1.3Q20.9 0.95 22.5-0.33 24.1-1.6 25.43-3.33 26.75-5.05 27.68-7.03 28.6-9 28.8-10.8L28.8-10.8Q27.4-10.5 26.13-10.23 24.85-9.95 23.7-9.95L23.7-9.95Q22.2-9.95 21.08-10.7 19.95-11.45 19.55-12.75L19.55-12.75Q20.45-13.25 22.18-13.8 23.9-14.35 25.85-14.83 27.8-15.3 29.68-15.6 31.55-15.9 32.75-15.9ZM54.6-20.2L54.6-20.2Q55.1-20.2 55.77-20.03 56.45-19.85 57-19.58 57.55-19.3 57.92-19 58.3-18.7 58.3-18.45L58.3-18.45Q57.3-16.35 56.45-14.23 55.6-12.1 55-10.15 54.4-8.2 54.07-6.5 53.75-4.8 53.75-3.55L53.75-3.55Q53.75-2.15 54.05-1.23 54.35-0.3 55.05 0.1L55.05 0.1Q54.45 0.5 53.5 0.75 52.55 1 51.8 1L51.8 1Q49.1 1 49.1-2.7L49.1-2.7Q49.1-5.55 51-10.5L51-10.5Q50-8.2 48.7-6.18 47.4-4.15 46.05-2.6 44.7-1.05 43.32-0.08 41.95 0.9 40.8 1.1L40.8 1.1Q38.95 1 37.8-0.68 36.65-2.35 36.65-4.95L36.65-4.95Q36.65-7.75 37.85-10.85 39.05-13.95 40.92-16.6 42.8-19.25 45-21.03 47.2-22.8 49.25-22.9L49.25-22.9Q49.75-22.75 50.37-22.3 51-21.85 51.57-21.25 52.15-20.65 52.55-20.03 52.95-19.4 53-18.95L53-18.95Q51-18.65 48.87-17 46.75-15.35 45.02-13.03 43.3-10.7 42.2-8.05 41.1-5.4 41.1-3.1L41.1-3.1Q41.1-2.15 41.8-1.9L41.8-1.9Q43.25-2.2 45.15-4.38 47.05-6.55 49.75-11.1L49.75-11.1Q50.25-12 50.87-13.1 51.5-14.2 52.15-15.4 52.8-16.6 53.42-17.82 54.05-19.05 54.6-20.2ZM59.65-1L59.65-1Q59.9-2.45 60.52-4.83 61.15-7.2 62-9.88 62.85-12.55 63.8-15.25 64.75-17.95 65.65-20.1L65.65-20.1Q66.3-21.65 66.8-22.53 67.3-23.4 67.9-24L67.9-24Q68.59-23.9 69.34-23.65 70.09-23.4 70.8-23.05 71.5-22.7 72.05-22.33 72.59-21.95 72.9-21.6L72.9-21.6Q71.55-20 70.52-17.95 69.5-15.9 68.45-12.7L68.45-12.7Q71.15-15.1 73.22-17.3 75.3-19.5 77.09-22.2L77.09-22.2Q77.4-22.45 78.15-22.45L78.15-22.45Q78.84-22.45 79.5-22.23 80.15-22 80.4-21.6L80.4-21.6Q79.5-19.2 79.5-16.85L79.5-16.85Q79.5-14.65 80.15-13.55L80.15-13.55Q80.09-13.25 79.47-12.4 78.84-11.55 78.09-10.8L78.09-10.8Q76.75-11.5 75.7-12.73 74.65-13.95 74.15-15.4L74.15-15.4Q71.8-13.75 70.15-12.18 68.5-10.6 67.32-8.68 66.15-6.75 65.32-4.25 64.5-1.75 63.75 1.7L63.75 1.7Q63.3 1.65 62.67 1.38 62.05 1.1 61.42 0.7 60.8 0.3 60.3-0.15 59.8-0.6 59.65-1ZM70.89 14.9L70.89 14.9Q70.89 14.6 71.09 14.35 71.29 14.1 71.54 13.85L71.54 13.85Q72.14 14.4 72.57 14.7 72.99 15 73.37 15.2 73.74 15.4 74.14 15.45 74.54 15.5 75.09 15.5L75.09 15.5Q77.69 15.5 80.04 14.13 82.39 12.75 84.47 10.15 86.54 7.55 88.24 3.8 89.94 0.05 91.24-4.7L91.24-4.7Q90.64-4.1 89.77-3.38 88.89-2.65 87.94-2 86.99-1.35 86.07-0.8 85.14-0.25 84.49 0L84.49 0Q83.64-0.15 82.92-0.73 82.19-1.3 81.64-2.15 81.09-3 80.79-4.08 80.49-5.15 80.49-6.35L80.49-6.35Q80.49-8.3 81.22-10.35 81.94-12.4 83.14-14.38 84.34-16.35 85.97-18.1 87.59-19.85 89.42-21.15 91.24-22.45 93.12-23.23 94.99-24 96.79-24L96.79-24Q98.54-24 99.42-23.28 100.29-22.55 100.69-20.8L100.69-20.8Q100.14-21.1 99.29-21.1L99.29-21.1Q98.09-21.1 96.52-20.15 94.94-19.2 93.32-17.68 91.69-16.15 90.09-14.18 88.49-12.2 87.27-10.15 86.04-8.1 85.27-6.15 84.49-4.2 84.49-2.65L84.49-2.65Q84.49-2.3 84.54-2.23 84.59-2.15 84.69-2.15L84.69-2.15Q85.14-2.15 85.92-2.65 86.69-3.15 87.67-3.93 88.64-4.7 89.69-5.73 90.74-6.75 91.69-7.8L91.69-7.8Q93.84-10.2 95.62-13.18 97.39-16.15 98.44-18.95L98.44-18.95Q99.79-18.85 100.84-18.5 101.89-18.15 102.29-17.75L102.29-17.75Q100.59-13.85 99.57-11.2 98.54-8.55 97.79-6.5L97.79-6.5Q96.44-2.9 95.27 0.08 94.09 3.05 92.87 5.58 91.64 8.1 90.22 10.28 88.79 12.45 86.99 14.45L86.99 14.45Q86.14 15.4 85.07 16.13 83.99 16.85 82.87 17.35 81.74 17.85 80.67 18.1 79.59 18.35 78.69 18.35L78.69 18.35Q77.49 18.35 76.24 18.07 74.99 17.8 73.92 17.32 72.84 16.85 72.04 16.23 71.24 15.6 70.89 14.9ZM109.39 1.75L109.39 1.75Q106.54 1.45 104.84-0.75 103.14-2.95 103.14-6.35L103.14-6.35Q103.14-8.35 103.74-10.5 104.34-12.65 105.44-14.68 106.54-16.7 108.04-18.5 109.54-20.3 111.29-21.6L111.29-21.6Q114.04-23.65 116.44-23.65L116.44-23.65Q118.04-22.8 119.59-20.1L119.59-20.1Q119.84-20.1 120.04-20.13 120.24-20.15 120.49-20.15L120.49-20.15Q123.14-20.15 123.14-15.45L123.14-15.45Q123.14-12.3 122.12-9.47 121.09-6.65 119.27-4.35 117.44-2.05 114.92-0.48 112.39 1.1 109.39 1.75ZM111.94-14L111.94-14Q111.09-12.85 110.34-11.5 109.59-10.15 109.04-8.78 108.49-7.4 108.19-6.13 107.89-4.85 107.89-3.85L107.89-3.85Q107.89-2.65 108.29-1.55 108.69-0.45 109.19-0.3L109.19-0.3Q111.44-0.8 113.32-2.18 115.19-3.55 116.57-5.6 117.94-7.65 118.72-10.25 119.49-12.85 119.49-15.8L119.49-15.8Q119.49-17.1 119.34-17.85 119.19-18.6 118.84-19.15L118.84-19.15Q116.64-18.5 114.92-17.05 113.19-15.6 111.94-14ZM133.64-24.25L133.64-24.25Q134.94-23.85 136.09-22.48 137.24-21.1 137.79-19.45L137.79-19.45Q137.24-18.1 136.09-16.2 134.94-14.3 133.79-12.33 132.64-10.35 131.71-8.58 130.79-6.8 130.64-5.65L130.64-5.65Q131.44-6.5 132.41-7.63 133.39-8.75 134.31-9.88 135.24-11 136.04-11.93 136.84-12.85 137.29-13.3L137.29-13.3Q138.24-14.3 139.54-15.63 140.84-16.95 142.26-18.13 143.69-19.3 145.14-20.13 146.59-20.95 147.79-20.95L147.79-20.95Q149.09-20.95 149.96-20.08 150.84-19.2 151.34-18.25L151.34-18.25Q151.34-18.15 150.96-17.98 150.59-17.8 149.89-17L149.89-17Q149.19-16.1 148.31-14.53 147.44-12.95 146.61-11.13 145.79-9.3 145.24-7.4 144.69-5.5 144.69-3.95L144.69-3.95Q144.69-2.7 145.01-2.35 145.34-2 145.94-2L145.94-2Q146.49-2 147.09-2.25 147.69-2.5 148.04-2.5L148.04-2.5Q148.24-2.4 148.36-2.08 148.49-1.75 148.49-1.5L148.49-1.5Q148.09-1.15 147.54-0.8 146.99-0.45 146.39-0.15 145.79 0.15 145.21 0.35 144.64 0.55 144.19 0.55L144.19 0.55Q142.74 0.55 141.81 0.13 140.89-0.3 140.36-1 139.84-1.7 139.64-2.68 139.44-3.65 139.44-4.75L139.44-4.75Q139.44-5.35 139.54-6.1 139.64-6.85 139.94-7.88 140.24-8.9 140.79-10.33 141.34-11.75 142.19-13.75L142.19-13.75Q142.09-13.75 140.84-13.05 139.59-12.35 138.14-10.9L138.14-10.9Q135.79-8.65 133.91-6.45 132.04-4.25 130.09-1.55L130.09-1.55Q128.99 0 128.16 1.07 127.34 2.15 126.74 2.5L126.74 2.5Q125.69 1.9 125.19 0.83 124.69-0.25 124.44-1.4L124.44-1.4Q124.44-2.35 124.71-3.8 124.99-5.25 125.46-7.03 125.94-8.8 126.64-10.75 127.34-12.7 128.19-14.65L128.19-14.65Q130.09-19.05 131.66-21.55 133.24-24.05 133.64-24.25ZM158.34-19.15L155.49-19.15Q155.24-19.45 155.03-20.43 154.84-21.4 154.84-22.1L154.84-22.1Q156.13-22 157.34-21.93 158.53-21.85 159.53-21.8L159.53-21.8Q160.28-23.3 161.16-24.78 162.03-26.25 162.86-27.48 163.69-28.7 164.41-29.55 165.13-30.4 165.53-30.65L165.53-30.65Q166.03-30.65 166.81-30.48 167.59-30.3 168.38-30.03 169.19-29.75 169.84-29.45 170.49-29.15 170.74-28.85L170.74-28.85Q169.24-26.95 168.16-25.33 167.09-23.7 165.84-21.6L165.84-21.6Q166.84-21.6 167.86-21.65 168.88-21.7 169.94-21.8L169.94-21.8Q170.19-21.55 170.34-21.18 170.49-20.8 170.49-20.4L170.49-20.4Q168.03-19.5 164.53-19.4L164.53-19.4Q163.28-17 162.31-14.63 161.34-12.25 160.66-10.05 159.99-7.85 159.61-5.9 159.24-3.95 159.24-2.4L159.24-2.4Q159.24-0.2 160.88 0.05L160.88 0.05Q162.38-0.15 163.74-0.7 165.09-1.25 166.13-2.1L166.13-2.1Q166.44-1.65 166.49-1.35L166.49-1.35Q166.19-0.9 165.46-0.3 164.74 0.3 163.88 0.88 163.03 1.45 162.24 1.85 161.44 2.25 161.03 2.3L161.03 2.3Q159.78 2.25 158.53 1.75 157.28 1.25 156.26 0.5 155.24-0.25 154.59-1.18 153.94-2.1 153.94-3L153.94-3Q153.94-4.2 154.26-6.03 154.59-7.85 155.19-10 155.78-12.15 156.59-14.5 157.38-16.85 158.34-19.15L158.34-19.15ZM187.38-20.2L187.38-20.2Q187.88-20.2 188.56-20.03 189.23-19.85 189.78-19.58 190.33-19.3 190.71-19 191.08-18.7 191.08-18.45L191.08-18.45Q190.08-16.35 189.23-14.23 188.38-12.1 187.78-10.15 187.18-8.2 186.86-6.5 186.53-4.8 186.53-3.55L186.53-3.55Q186.53-2.15 186.83-1.23 187.13-0.3 187.83 0.1L187.83 0.1Q187.23 0.5 186.28 0.75 185.33 1 184.58 1L184.58 1Q181.88 1 181.88-2.7L181.88-2.7Q181.88-5.55 183.78-10.5L183.78-10.5Q182.78-8.2 181.48-6.18 180.18-4.15 178.83-2.6 177.48-1.05 176.11-0.08 174.73 0.9 173.58 1.1L173.58 1.1Q171.73 1 170.58-0.68 169.43-2.35 169.43-4.95L169.43-4.95Q169.43-7.75 170.63-10.85 171.83-13.95 173.71-16.6 175.58-19.25 177.78-21.03 179.98-22.8 182.03-22.9L182.03-22.9Q182.53-22.75 183.16-22.3 183.78-21.85 184.36-21.25 184.93-20.65 185.33-20.03 185.73-19.4 185.78-18.95L185.78-18.95Q183.78-18.65 181.66-17 179.53-15.35 177.81-13.03 176.08-10.7 174.98-8.05 173.88-5.4 173.88-3.1L173.88-3.1Q173.88-2.15 174.58-1.9L174.58-1.9Q176.03-2.2 177.93-4.38 179.83-6.55 182.53-11.1L182.53-11.1Q183.03-12 183.66-13.1 184.28-14.2 184.93-15.4 185.58-16.6 186.21-17.82 186.83-19.05 187.38-20.2Z" opacity="1" transform="matrix(1,0,0,1,0,0)" fill="#8b3c7f" class="undefined-text-0" data-fill-palette-color="primary" id="text-0"></path></svg></g></svg></g></svg></g></svg></g><g></g></svg></g></svg></g></svg></g></svg></g><defs></defs></svg><rect width="320" height="360" fill="none" stroke="none" visibility="hidden"></rect></g></svg></g></svg>